<svg width="14" height="14" viewBox="0 0 14 14" fill="none" xmlns="http://www.w3.org/2000/svg">
<path d="M13.9617 4.11605C13.9289 3.37217 13.8087 2.86077 13.6363 2.41762C13.4586 1.94724 13.1851 1.52611 12.8268 1.17601C12.4767 0.820475 12.0528 0.544206 11.5878 0.369214C11.1421 0.196893 10.6334 0.0765991 9.8895 0.0438014C9.14007 0.00822611 8.90215 0 7.00138 0C5.10062 0 4.8627 0.00822611 4.11605 0.0410238C3.37217 0.0738214 2.86076 0.194222 2.41773 0.366436C1.94724 0.544206 1.5261 0.817698 1.17601 1.17601C0.820475 1.52611 0.544312 1.95002 0.369214 2.41495C0.196893 2.86077 0.076599 3.3694 0.0438014 4.11327C0.00822611 4.8627 0 5.10062 0 7.00139C0 8.90216 0.00822611 9.14007 0.0410237 9.88673C0.0738214 10.6306 0.194222 11.142 0.366543 11.5852C0.544312 12.0555 0.820475 12.4767 1.17601 12.8268C1.5261 13.1823 1.95002 13.4586 2.41495 13.6336C2.86076 13.8059 3.36939 13.9262 4.11338 13.959C4.85992 13.9919 5.09795 14 6.99871 14C8.89948 14 9.1374 13.9919 9.88405 13.959C10.6279 13.9262 11.1393 13.8059 11.5824 13.6336C12.5232 13.2698 13.2671 12.5259 13.6309 11.5852C13.8031 11.1393 13.9235 10.6306 13.9563 9.88673C13.9891 9.14007 13.9973 8.90216 13.9973 7.00139C13.9973 5.10062 13.9945 4.8627 13.9617 4.11605ZM12.701 9.83203C12.6709 10.5158 12.556 10.885 12.4603 11.1311C12.2251 11.741 11.741 12.2251 11.1311 12.4603C10.885 12.556 10.5131 12.6709 9.83202 12.7009C9.09359 12.7338 8.87213 12.7419 7.00416 12.7419C5.13619 12.7419 4.91195 12.7338 4.1762 12.7009C3.49247 12.6709 3.12325 12.556 2.87711 12.4603C2.5736 12.3482 2.29733 12.1704 2.07309 11.9379C1.84062 11.7109 1.66285 11.4374 1.55068 11.1339C1.45495 10.8877 1.34011 10.5158 1.31009 9.83481C1.27718 9.09638 1.26907 8.87481 1.26907 7.00684C1.26907 5.13887 1.27718 4.91463 1.31009 4.17898C1.34011 3.49525 1.45495 3.12603 1.55068 2.87989C1.66285 2.57627 1.84062 2.30011 2.07587 2.07576C2.30278 1.84329 2.57627 1.66552 2.87989 1.55345C3.12603 1.45773 3.49802 1.34289 4.17897 1.31276C4.9174 1.27996 5.13897 1.27174 7.00683 1.27174C8.87758 1.27174 9.09904 1.27996 9.8348 1.31276C10.5185 1.34289 10.8877 1.45773 11.1339 1.55345C11.4374 1.66552 11.7137 1.84329 11.9379 2.07576C12.1704 2.30278 12.3481 2.57627 12.4603 2.87989C12.556 3.12603 12.6709 3.49792 12.701 4.17898C12.7338 4.9174 12.742 5.13887 12.742 7.00684C12.742 8.87481 12.7338 9.0936 12.701 9.83203Z" fill="#848692"/>
<path d="M7.00132 3.40471C5.01584 3.40471 3.40491 5.01553 3.40491 7.00112C3.40491 8.98672 5.01584 10.5975 7.00132 10.5975C8.98692 10.5975 10.5977 8.98672 10.5977 7.00112C10.5977 5.01553 8.98692 3.40471 7.00132 3.40471ZM7.00132 9.33403C5.71324 9.33403 4.66842 8.28931 4.66842 7.00112C4.66842 5.71294 5.71324 4.66822 7.00132 4.66822C8.28951 4.66822 9.33423 5.71294 9.33423 7.00112C9.33423 8.28931 8.28951 9.33403 7.00132 9.33403Z" fill="#848692"/>
<path d="M11.5797 3.26315C11.5797 3.7268 11.2038 4.10275 10.74 4.10275C10.2763 4.10275 9.90039 3.7268 9.90039 3.26315C9.90039 2.79939 10.2763 2.42355 10.74 2.42355C11.2038 2.42355 11.5797 2.79939 11.5797 3.26315Z" fill="#848692"/>
</svg>
