<svg width="128" height="100" viewBox="0 0 128 100" fill="none" xmlns="http://www.w3.org/2000/svg">
<path d="M32.4379 93.2883C32.5131 93.2883 32.5792 93.2416 32.6362 93.1482C32.6932 93.0548 32.7205 92.9431 32.7182 92.8132C32.7137 92.6651 32.6863 92.5523 32.6362 92.4749C32.5747 92.3837 32.5086 92.3381 32.4379 92.3381H28.1928C28.1176 92.3381 28.0515 92.3837 27.9946 92.4749C27.9376 92.5706 27.9103 92.6833 27.9126 92.8132C27.9171 92.9613 27.9445 93.073 27.9946 93.1482C28.0561 93.2416 28.1222 93.2883 28.1928 93.2883H29.6181V96.9285C29.6181 97.0037 29.6853 97.0697 29.8198 97.1267C29.9588 97.1837 30.124 97.211 30.3154 97.2087C30.5341 97.2042 30.6993 97.1768 30.811 97.1267C30.9454 97.0652 31.0126 96.9991 31.0126 96.9285V93.2883H32.4379ZM35.8354 96.0466C35.4799 96.0466 35.1757 95.9213 34.9228 95.6707C34.6722 95.4177 34.5468 95.1135 34.5468 94.7581C34.5468 94.4026 34.6722 94.0984 34.9228 93.8455C35.1757 93.5948 35.4799 93.4695 35.8354 93.4695C36.1909 93.4695 36.4951 93.5948 36.748 93.8455C36.9987 94.0984 37.124 94.4026 37.124 94.7581C37.124 95.1135 36.9987 95.4177 36.748 95.6707C36.4951 95.9213 36.1909 96.0466 35.8354 96.0466ZM35.8354 92.3074C35.5027 92.3074 35.1849 92.3723 34.8818 92.5022C34.5878 92.6252 34.3281 92.7996 34.1025 93.0251C33.8769 93.2507 33.7015 93.5105 33.5761 93.8044C33.4485 94.1075 33.3847 94.4254 33.3847 94.7581C33.3847 95.0907 33.4485 95.4086 33.5761 95.7117C33.7015 96.0056 33.8769 96.2654 34.1025 96.491C34.3281 96.7166 34.5878 96.892 34.8818 97.0173C35.1849 97.1449 35.5027 97.2087 35.8354 97.2087C36.1681 97.2087 36.486 97.1449 36.789 97.0173C37.083 96.892 37.3427 96.7166 37.5683 96.491C37.7939 96.2654 37.9682 96.0056 38.0913 95.7117C38.2211 95.4086 38.2861 95.0907 38.2861 94.7581C38.2861 94.4254 38.2211 94.1075 38.0913 93.8044C37.9682 93.5105 37.7939 93.2507 37.5683 93.0251C37.3427 92.7996 37.083 92.6252 36.789 92.5022C36.486 92.3723 36.1681 92.3074 35.8354 92.3074ZM40.4531 94.6042L40.4497 93.2747L41.2973 93.2678C41.4477 93.2678 41.597 93.3339 41.7451 93.4661C41.8955 93.5982 41.9707 93.7327 41.9707 93.8694C41.9707 94.0972 41.8977 94.2818 41.7519 94.4231C41.622 94.5484 41.4705 94.6111 41.2973 94.6111L40.4531 94.6042ZM39.332 92.321C39.2591 92.321 39.1953 92.3427 39.1406 92.386C39.0927 92.4247 39.0688 92.4657 39.0688 92.509V96.9285C39.0688 96.9991 39.1372 97.0652 39.2739 97.1267C39.3878 97.1791 39.5359 97.2065 39.7182 97.2087C39.9096 97.211 40.0748 97.1837 40.2138 97.1267C40.3505 97.0697 40.4189 97.0037 40.4189 96.9285V96.1697L40.4223 95.5647H40.8188C40.8188 95.5647 40.8188 95.5636 40.8188 95.5613C40.8188 95.5613 40.8177 95.5613 40.8154 95.5613H41.6254C42.0242 95.5613 42.3592 95.4542 42.6303 95.24C42.9995 94.9506 43.184 94.4937 43.184 93.8694C43.184 93.4296 42.9995 93.0525 42.6303 92.738C42.4777 92.6059 42.309 92.5022 42.1245 92.427C41.9467 92.3564 41.7804 92.321 41.6254 92.321H39.332ZM47.3505 93.2815C47.4235 93.2815 47.4873 93.2348 47.5419 93.1414C47.5966 93.0479 47.6228 92.9363 47.6206 92.8064C47.616 92.6583 47.5898 92.5455 47.5419 92.468C47.4827 92.3769 47.4189 92.3313 47.3505 92.3313H44.1513C44.0784 92.3313 44.0146 92.3769 43.9599 92.468C43.9052 92.5637 43.879 92.6765 43.8813 92.8064C43.8859 92.9545 43.9121 93.0662 43.9599 93.1414C44.0192 93.2348 44.083 93.2815 44.1513 93.2815H47.3505ZM43.8916 96.9285C43.8916 97.0037 43.9599 97.0697 44.0966 97.1267C44.2356 97.1837 44.4008 97.211 44.5922 97.2087C44.811 97.2042 44.9762 97.1768 45.0878 97.1267C45.2246 97.0652 45.2929 96.9991 45.2929 96.9285V92.6765C45.2929 92.6013 45.2246 92.5352 45.0878 92.4783C44.9488 92.419 44.7836 92.3917 44.5922 92.3962C44.3735 92.4008 44.2083 92.4281 44.0966 92.4783C43.9599 92.5398 43.8916 92.6059 43.8916 92.6765V96.9285ZM50.7719 96.0466C50.4165 96.0466 50.1123 95.9213 49.8593 95.6707C49.6087 95.4177 49.4834 95.1135 49.4834 94.7581C49.4834 94.4026 49.6087 94.0984 49.8593 93.8455C50.1123 93.5948 50.4165 93.4695 50.7719 93.4695C51.1274 93.4695 51.4316 93.5948 51.6845 93.8455C51.9352 94.0984 52.0605 94.4026 52.0605 94.7581C52.0605 95.1135 51.9352 95.4177 51.6845 95.6707C51.4316 95.9213 51.1274 96.0466 50.7719 96.0466ZM50.7719 92.3074C50.4392 92.3074 50.1214 92.3723 49.8183 92.5022C49.5244 92.6252 49.2646 92.7996 49.039 93.0251C48.8134 93.2507 48.638 93.5105 48.5126 93.8044C48.385 94.1075 48.3212 94.4254 48.3212 94.7581C48.3212 95.0907 48.385 95.4086 48.5126 95.7117C48.638 96.0056 48.8134 96.2654 49.039 96.491C49.2646 96.7166 49.5244 96.892 49.8183 97.0173C50.1214 97.1449 50.4392 97.2087 50.7719 97.2087C51.1046 97.2087 51.4225 97.1449 51.7255 97.0173C52.0195 96.892 52.2793 96.7166 52.5048 96.491C52.7304 96.2654 52.9047 96.0056 53.0278 95.7117C53.1577 95.4086 53.2226 95.0907 53.2226 94.7581C53.2226 94.4254 53.1577 94.1075 53.0278 93.8044C52.9047 93.5105 52.7304 93.2507 52.5048 93.0251C52.2793 92.7996 52.0195 92.6252 51.7255 92.5022C51.4225 92.3723 51.1046 92.3074 50.7719 92.3074ZM55.3828 96.2551L55.3862 94.9255L56.6918 94.9187C56.865 94.9187 57.0166 94.9814 57.1464 95.1067C57.2923 95.248 57.3652 95.4325 57.3652 95.6604C57.3652 95.7971 57.2911 95.9316 57.143 96.0637C56.9949 96.1959 56.8445 96.262 56.6918 96.262L55.3828 96.2551ZM55.3862 93.2131L55.8374 93.2063C55.9969 93.2063 56.1393 93.245 56.2646 93.3225C56.3922 93.4023 56.456 93.4934 56.456 93.5959C56.456 93.6757 56.3899 93.7566 56.2578 93.8386C56.1233 93.9275 55.9832 93.9719 55.8374 93.9719L55.3828 93.9651L55.3862 93.2131ZM57.5839 94.0574C57.6386 93.9161 57.666 93.7623 57.666 93.5959C57.666 93.2314 57.4917 92.9203 57.143 92.6628C56.8331 92.4373 56.5073 92.3245 56.1655 92.3245H54.3164C54.2389 92.3245 54.166 92.3575 54.0976 92.4236C54.0361 92.4851 54.0053 92.5455 54.0053 92.6047V97.0208C54.0053 97.0618 54.0293 97.1028 54.0771 97.1438C54.1318 97.1871 54.1956 97.2087 54.2685 97.2087H57.02C57.1749 97.2087 57.3413 97.1723 57.519 97.0994C57.7036 97.0242 57.8722 96.9216 58.0249 96.7917C58.394 96.4773 58.5786 96.1002 58.5786 95.6604C58.5786 95.1978 58.476 94.8253 58.271 94.5427C58.1023 94.3149 57.8733 94.1531 57.5839 94.0574ZM64.7207 92.4031C64.5794 92.3438 64.4119 92.3165 64.2182 92.321C63.9972 92.3233 63.8297 92.3507 63.7158 92.4031C63.5768 92.4646 63.5073 92.5318 63.5073 92.6047V96.925C63.5073 97.0002 63.5768 97.0675 63.7158 97.1267C63.8571 97.1837 64.0245 97.211 64.2182 97.2087C64.4392 97.2042 64.6067 97.1768 64.7207 97.1267C64.8597 97.0629 64.9292 96.9957 64.9292 96.925V92.6047C64.9292 92.5273 64.8597 92.46 64.7207 92.4031ZM60.6977 94.9221C61.0395 94.9221 61.3038 94.9597 61.4907 95.0349C61.7573 95.142 61.8906 95.3289 61.8906 95.5955C61.8906 95.9213 61.7721 96.1412 61.5351 96.2551C61.3688 96.3349 61.0896 96.3748 60.6977 96.3748V94.9221ZM60.6977 92.6047C60.6977 92.5273 60.6282 92.46 60.4892 92.4031C60.3479 92.3438 60.1805 92.3165 59.9868 92.321C59.7657 92.3233 59.5983 92.3507 59.4843 92.4031C59.3453 92.4646 59.2758 92.5318 59.2758 92.6047V96.925C59.2758 97.0002 59.3453 97.0675 59.4843 97.1267C59.6256 97.1837 59.7931 97.211 59.9868 97.2087C59.9845 97.2087 59.9913 97.2087 60.0073 97.2087H60.6977C61.4337 97.2087 61.9806 97.0937 62.3383 96.8635C62.7508 96.6015 62.957 96.1697 62.957 95.5681C62.957 95.0417 62.7029 94.6498 62.1948 94.3923C61.796 94.1895 61.297 94.0881 60.6977 94.0881V92.6047ZM70.2885 92.4167C70.1495 92.3598 69.9832 92.3324 69.7895 92.3347C69.5685 92.3393 69.401 92.3666 69.2871 92.4167C69.164 92.4737 69.0968 92.5307 69.0854 92.5876L67.0312 95.4963V92.6184C67.0312 92.5432 66.9617 92.476 66.8227 92.4167C66.6814 92.3598 66.514 92.3324 66.3203 92.3347C66.0992 92.3393 65.9329 92.3666 65.8212 92.4167C65.6822 92.4806 65.6127 92.5478 65.6127 92.6184V96.925C65.6127 97.0002 65.6822 97.0675 65.8212 97.1267C65.9602 97.1837 66.1266 97.211 66.3203 97.2087C66.5413 97.2042 66.7088 97.1768 66.8227 97.1267C66.9412 97.072 67.0084 97.0173 67.0244 96.9626L69.0786 93.9241V96.925C69.0786 97.0002 69.1481 97.0675 69.2871 97.1267C69.4283 97.1837 69.5958 97.211 69.7895 97.2087C70.0105 97.2042 70.1769 97.1768 70.2885 97.1267C70.4275 97.0629 70.497 96.9957 70.497 96.925V92.6184C70.497 92.5432 70.4275 92.476 70.2885 92.4167ZM68.477 92.2185C68.739 91.8516 68.8951 91.6363 68.9453 91.5725C68.9886 91.5064 69.1435 91.2911 69.4101 90.9265C69.4488 90.8673 69.4386 90.783 69.3793 90.6736C69.3178 90.5642 69.2233 90.4639 69.0957 90.3728C68.9498 90.2703 68.8245 90.2122 68.7197 90.1985C68.5944 90.1803 68.5123 90.1985 68.4736 90.2532C68.3255 90.4605 68.0144 90.8901 67.5405 91.5417C67.4995 91.601 67.5097 91.6853 67.5712 91.7947C67.6328 91.9041 67.7285 92.0043 67.8584 92.0955C68.0019 92.1957 68.1261 92.2538 68.2309 92.2698C68.3562 92.2903 68.4383 92.2732 68.477 92.2185ZM77.9653 96.2449V92.5911C77.9653 92.5159 77.8958 92.4486 77.7568 92.3894C77.6155 92.3302 77.448 92.3028 77.2543 92.3074C77.031 92.3119 76.8624 92.3393 76.7485 92.3894C76.6095 92.4532 76.54 92.5204 76.54 92.5911V96.2449H74.3935V92.5911C74.3935 92.5159 74.324 92.4486 74.185 92.3894C74.0437 92.3302 73.8763 92.3028 73.6826 92.3074C73.4593 92.3119 73.2906 92.3393 73.1767 92.3894C73.0377 92.4532 72.9682 92.5204 72.9682 92.5911V96.9285C72.9682 96.99 73.007 97.0492 73.0844 97.1062C73.1756 97.1746 73.2906 97.2087 73.4296 97.2087C73.4319 97.2087 74.1406 97.2087 75.5556 97.2087C76.9707 97.211 77.7067 97.2122 77.7636 97.2122V98.0598C77.7636 98.1327 77.8377 98.1965 77.9858 98.2512C78.1339 98.3082 78.3094 98.3355 78.5122 98.3333C78.7469 98.3287 78.9235 98.3014 79.0419 98.2512C79.1878 98.192 79.2607 98.1282 79.2607 98.0598V96.5422C79.2607 96.4579 79.2254 96.385 79.1547 96.3235C79.0978 96.2711 79.0419 96.2449 78.9873 96.2449H77.9653ZM81.3662 96.2585V95.0623H82.1796C82.2503 95.0623 82.3129 95.0155 82.3676 94.9221C82.4246 94.8287 82.4508 94.717 82.4462 94.5872C82.444 94.439 82.4178 94.3263 82.3676 94.2488C82.3084 94.1576 82.2457 94.1121 82.1796 94.1121H81.3662V93.2712H83.0717C83.1446 93.2712 83.2085 93.2245 83.2631 93.1311C83.3178 93.0377 83.344 92.926 83.3418 92.7961C83.3372 92.648 83.311 92.5352 83.2631 92.4578C83.2039 92.3666 83.1401 92.321 83.0717 92.321H80.2211C80.1232 92.321 80.0525 92.3643 80.0092 92.4509C79.9728 92.5284 79.9545 92.6435 79.9545 92.7961C79.9614 95.5351 79.9648 96.9091 79.9648 96.9182C79.9648 97.0162 79.9944 97.0914 80.0537 97.1438C80.1038 97.1871 80.1596 97.2087 80.2211 97.2087H83.0717C83.1446 97.2087 83.2085 97.162 83.2631 97.0686C83.3178 96.9752 83.344 96.8635 83.3418 96.7336C83.3372 96.5855 83.311 96.4727 83.2631 96.3953C83.2039 96.3041 83.1401 96.2585 83.0717 96.2585H81.3662ZM87.122 95.1614V96.925C87.122 97.0002 87.1915 97.0675 87.3305 97.1267C87.4695 97.1837 87.637 97.211 87.833 97.2087C88.054 97.2042 88.2215 97.1768 88.3354 97.1267C88.4744 97.0629 88.5439 96.9957 88.5439 96.925V92.5979C88.5439 92.5227 88.4744 92.4566 88.3354 92.3997C88.1941 92.3404 88.0266 92.3131 87.833 92.3176C87.6097 92.3199 87.4422 92.3472 87.3305 92.3997C87.1915 92.4612 87.122 92.5273 87.122 92.5979V94.1941H85.4711V92.5979C85.4711 92.5227 85.4016 92.4566 85.2626 92.3997C85.1237 92.3404 84.9562 92.3131 84.7602 92.3176C84.5392 92.3199 84.3717 92.3472 84.2578 92.3997C84.1188 92.4612 84.0493 92.5273 84.0493 92.5979V96.925C84.0493 97.0002 84.1188 97.0675 84.2578 97.1267C84.399 97.1837 84.5665 97.211 84.7602 97.2087C84.9812 97.2042 85.1487 97.1768 85.2626 97.1267C85.4016 97.0629 85.4711 96.9957 85.4711 96.925V95.1614H87.122ZM93.8042 93.2883C93.8793 93.2883 93.9454 93.2416 94.0024 93.1482C94.0594 93.0548 94.0867 92.9431 94.0844 92.8132C94.0799 92.6651 94.0525 92.5523 94.0024 92.4749C93.9409 92.3837 93.8748 92.3381 93.8042 92.3381H89.559C89.4838 92.3381 89.4178 92.3837 89.3608 92.4749C89.3038 92.5706 89.2765 92.6833 89.2788 92.8132C89.2833 92.9613 89.3107 93.073 89.3608 93.1482C89.4223 93.2416 89.4884 93.2883 89.559 93.2883H90.9843V96.9285C90.9843 97.0037 91.0515 97.0697 91.186 97.1267C91.325 97.1837 91.4902 97.211 91.6816 97.2087C91.9003 97.2042 92.0655 97.1768 92.1772 97.1267C92.3116 97.0652 92.3789 96.9991 92.3789 96.9285V93.2883H93.8042ZM96.1318 94.6042L96.1284 93.2747L96.976 93.2678C97.1264 93.2678 97.2757 93.3339 97.4238 93.4661C97.5742 93.5982 97.6494 93.7327 97.6494 93.8694C97.6494 94.0972 97.5765 94.2818 97.4306 94.4231C97.3007 94.5484 97.1492 94.6111 96.976 94.6111L96.1318 94.6042ZM95.0107 92.321C94.9378 92.321 94.874 92.3427 94.8193 92.386C94.7714 92.4247 94.7475 92.4657 94.7475 92.509V96.9285C94.7475 96.9991 94.8159 97.0652 94.9526 97.1267C95.0665 97.1791 95.2146 97.2065 95.3969 97.2087C95.5883 97.211 95.7535 97.1837 95.8925 97.1267C96.0293 97.0697 96.0976 97.0037 96.0976 96.9285V96.1697L96.101 95.5647H96.4975C96.4975 95.5647 96.4975 95.5636 96.4975 95.5613C96.4975 95.5613 96.4964 95.5613 96.4941 95.5613H97.3042C97.7029 95.5613 98.0379 95.4542 98.309 95.24C98.6782 94.9506 98.8627 94.4937 98.8627 93.8694C98.8627 93.4296 98.6782 93.0525 98.309 92.738C98.1564 92.6059 97.9877 92.5022 97.8032 92.427C97.6254 92.3564 97.4591 92.321 97.3042 92.321H95.0107Z" fill="#D270A5"/>
<path d="M65.0887 5.3571C65.0887 6.05705 64.8811 6.74127 64.4922 7.32326C64.1034 7.90524 63.5506 8.35884 62.904 8.6267C62.2573 8.89455 61.5457 8.96464 60.8592 8.82809C60.1728 8.69153 59.5422 8.35448 59.0472 7.85954C58.5523 7.36461 58.2152 6.73402 58.0787 6.04752C57.9421 5.36103 58.0122 4.64945 58.2801 4.00279C58.5479 3.35612 59.0015 2.80341 59.5835 2.41454C60.1655 2.02567 60.8497 1.81812 61.5497 1.81812C62.4883 1.81812 63.3884 2.19097 64.0521 2.85466C64.7158 3.51835 65.0887 4.4185 65.0887 5.3571Z" fill="#93CAF2"/>
<g opacity="0.9">
<mask id="mask0" mask-type="alpha" maskUnits="userSpaceOnUse" x="35" y="13" width="59" height="51">
<path d="M87.19 16.2886C86.794 15.6784 86.279 15.1543 85.6758 14.7478C85.0725 14.3412 84.3935 14.0605 83.6793 13.9225C82.9651 13.7845 82.2304 13.7919 81.5191 13.9444C80.8078 14.0969 80.1346 14.3913 79.5398 14.8101C78.945 15.2288 78.4407 15.7632 78.0572 16.3813C77.6737 16.9994 77.4188 17.6885 77.3078 18.4075C77.1968 19.1264 77.2319 19.8603 77.4111 20.5653C77.5904 21.2703 77.91 21.9319 78.3508 22.5105L78.322 22.5327C80.4727 25.1052 81.8749 28.2194 82.3756 31.5349C82.8762 34.8504 82.456 38.2397 81.1609 41.3326C79.8658 44.4254 77.7455 47.1029 75.0318 49.0724C72.3181 51.0419 69.1153 52.2277 65.7733 52.5002C62.4313 52.7728 59.0787 52.1216 56.0817 50.6178C53.0847 49.114 50.5587 46.8155 48.7796 43.9733C47.0004 41.1311 46.0366 37.8547 45.9935 34.5019C45.9503 31.149 46.8295 27.8489 48.5349 24.9618L48.521 24.9519C49.1647 23.8032 49.3678 22.4592 49.0924 21.1716C48.8169 19.8839 48.0818 18.7407 47.0245 17.9559C45.9671 17.171 44.6601 16.7983 43.3478 16.9073C42.0355 17.0164 40.808 17.5999 39.8947 18.5485C39.729 18.7147 39.5769 18.8941 39.4402 19.0849C39.211 19.395 39.0156 19.7286 38.8574 20.0803C36.2894 24.6814 35.0179 29.8931 35.1784 35.1599C35.339 40.4267 36.9256 45.5513 39.7691 49.9874C42.6126 54.4236 46.6065 58.0051 51.3251 60.3502C56.0437 62.6954 61.3102 63.7163 66.5633 63.3042C71.8164 62.8921 76.8593 61.0624 81.1545 58.0101C85.4497 54.9578 88.8362 50.7973 90.9531 45.972C93.0701 41.1467 93.8381 35.8374 93.1754 30.61C92.5127 25.3826 90.4441 20.4329 87.19 16.2886Z" fill="#C20D19"/>
</mask>
<g mask="url(#mask0)">
<g style="mix-blend-mode:overlay">
<path d="M50.9898 17.0867C50.9898 17.8851 50.7531 18.6655 50.3095 19.3293C49.866 19.9932 49.2355 20.5106 48.4979 20.8161C47.7603 21.1216 46.9487 21.2016 46.1656 21.0458C45.3826 20.89 44.6634 20.5056 44.0988 19.941C43.5343 19.3765 43.1498 18.6572 42.9941 17.8742C42.8383 17.0912 42.9183 16.2795 43.2238 15.5419C43.5293 14.8043 44.0467 14.1739 44.7105 13.7303C45.3743 13.2868 46.1548 13.05 46.9532 13.05C48.0238 13.05 49.0505 13.4753 49.8075 14.2324C50.5645 14.9894 50.9898 16.0161 50.9898 17.0867Z" fill="#D8C12D"/>
</g>
<g style="mix-blend-mode:overlay">
<path d="M44.2641 27.56C47.2489 27.3145 49.4696 24.6958 49.2241 21.711C48.9786 18.7262 46.3599 16.5056 43.3751 16.7511C40.3903 16.9965 38.1697 19.6152 38.4151 22.6C38.6606 25.5848 41.2793 27.8055 44.2641 27.56Z" fill="#C7362E"/>
</g>
<g style="mix-blend-mode:overlay">
<path d="M39.4655 46.592C42.4593 46.592 44.8863 44.165 44.8863 41.1712C44.8863 38.1774 42.4593 35.7505 39.4655 35.7505C36.4717 35.7505 34.0448 38.1774 34.0448 41.1712C34.0448 44.165 36.4717 46.592 39.4655 46.592Z" fill="#396334"/>
</g>
<g style="mix-blend-mode:overlay">
<path d="M53.0187 45.6485C53.2048 42.6605 50.9333 40.0874 47.9453 39.9014C44.9573 39.7153 42.3843 41.9868 42.1982 44.9748C42.0122 47.9628 44.2836 50.5358 47.2716 50.7219C50.2596 50.9079 52.8327 48.6365 53.0187 45.6485Z" fill="#6AAE82"/>
</g>
<g style="mix-blend-mode:overlay" opacity="0.7">
<path d="M43.0178 53.9573C46.0014 53.7104 48.2199 51.0915 47.973 48.1079C47.7261 45.1243 45.1072 42.9058 42.1236 43.1528C39.1401 43.3997 36.9215 46.0185 37.1685 49.0021C37.4154 51.9857 40.0342 54.2042 43.0178 53.9573Z" fill="#32596A"/>
</g>
<g style="mix-blend-mode:overlay">
<path d="M53.0292 54.2826C53.0292 55.3544 52.7114 56.4021 52.1159 57.2933C51.5205 58.1844 50.6741 58.879 49.6839 59.2892C48.6937 59.6993 47.6041 59.8066 46.5529 59.5975C45.5017 59.3884 44.5361 58.8723 43.7783 58.1145C43.0204 57.3566 42.5043 56.391 42.2952 55.3398C42.0861 54.2886 42.1934 53.199 42.6035 52.2088C43.0137 51.2186 43.7083 50.3723 44.5994 49.7768C45.4906 49.1814 46.5383 48.8635 47.6101 48.8635C49.0473 48.8635 50.4257 49.4345 51.442 50.4507C52.4583 51.467 53.0292 52.8454 53.0292 54.2826Z" fill="#2E376C"/>
</g>
<g style="mix-blend-mode:overlay">
<path d="M53.9953 56.4906C56.989 56.4906 59.416 54.0637 59.416 51.0699C59.416 48.0761 56.989 45.6492 53.9953 45.6492C51.0015 45.6492 48.5745 48.0761 48.5745 51.0699C48.5745 54.0637 51.0015 56.4906 53.9953 56.4906Z" fill="#4B68AD"/>
</g>
<g style="mix-blend-mode:overlay">
<path d="M54.5935 63.2726C57.5873 63.2726 60.0143 60.8457 60.0143 57.8519C60.0143 54.8581 57.5873 52.4312 54.5935 52.4312C51.5997 52.4312 49.1728 54.8581 49.1728 57.8519C49.1728 60.8457 51.5997 63.2726 54.5935 63.2726Z" fill="#2C3160"/>
</g>
<g style="mix-blend-mode:overlay">
<path d="M67.1911 60.3363C67.1911 61.4081 66.8733 62.4558 66.2778 63.347C65.6824 64.2381 64.836 64.9327 63.8458 65.3429C62.8556 65.753 61.766 65.8603 60.7148 65.6512C59.6636 65.4422 58.6981 64.926 57.9402 64.1682C57.1823 63.4103 56.6662 62.4447 56.4571 61.3935C56.248 60.3423 56.3553 59.2527 56.7655 58.2625C57.1756 57.2723 57.8702 56.426 58.7614 55.8305C59.6525 55.2351 60.7002 54.9172 61.772 54.9172C63.2093 54.9172 64.5876 55.4882 65.6039 56.5044C66.6202 57.5207 67.1911 58.8991 67.1911 60.3363Z" fill="#1B1C2F"/>
</g>
<path d="M62.5292 59.3969C65.523 59.3969 67.9499 56.9699 67.9499 53.9762C67.9499 50.9824 65.523 48.5554 62.5292 48.5554C59.5354 48.5554 57.1085 50.9824 57.1085 53.9762C57.1085 56.9699 59.5354 59.3969 62.5292 59.3969Z" fill="#757BB7"/>
<g style="mix-blend-mode:overlay">
<path d="M74.9674 58.9462C74.9674 60.018 74.6495 61.0657 74.0541 61.9568C73.4586 62.848 72.6123 63.5426 71.6221 63.9527C70.6319 64.3629 69.5423 64.4702 68.4911 64.2611C67.4399 64.052 66.4743 63.5359 65.7164 62.778C64.9585 62.0202 64.4424 61.0546 64.2333 60.0034C64.0242 58.9522 64.1316 57.8626 64.5417 56.8724C64.9519 55.8822 65.6464 55.0358 66.5376 54.4404C67.4288 53.8449 68.4765 53.5271 69.5483 53.5271C70.9855 53.5271 72.3639 54.098 73.3801 55.1143C74.3964 56.1306 74.9674 57.5089 74.9674 58.9462Z" fill="#362961"/>
</g>
<g style="mix-blend-mode:overlay">
<path d="M76.6221 53.1478C76.6221 54.2196 76.3043 55.2673 75.7089 56.1585C75.1134 57.0497 74.2671 57.7442 73.2769 58.1544C72.2867 58.5646 71.1971 58.6719 70.1459 58.4628C69.0947 58.2537 68.1291 57.7376 67.3712 56.9797C66.6133 56.2218 66.0972 55.2562 65.8881 54.205C65.679 53.1538 65.7863 52.0642 66.1965 51.074C66.6067 50.0838 67.3012 49.2375 68.1924 48.642C69.0836 48.0466 70.1313 47.7288 71.2031 47.7288C72.6403 47.7288 74.0187 48.2997 75.0349 49.316C76.0512 50.3322 76.6221 51.7106 76.6221 53.1478Z" fill="#5A4691"/>
</g>
<g style="mix-blend-mode:overlay">
<path d="M82.0289 56.8749C82.2411 53.8886 79.9923 51.2957 77.0061 51.0835C74.0198 50.8713 71.4269 53.1201 71.2147 56.1063C71.0025 59.0926 73.2513 61.6855 76.2375 61.8977C79.2238 62.1099 81.8167 59.8611 82.0289 56.8749Z" fill="#894790"/>
</g>
<g style="mix-blend-mode:overlay">
<path d="M78.2512 54.9124C81.2433 54.8128 83.5881 52.3064 83.4885 49.3143C83.3889 46.3221 80.8825 43.9773 77.8904 44.0769C74.8983 44.1766 72.5534 46.6829 72.653 49.6751C72.7527 52.6672 75.259 55.012 78.2512 54.9124Z" fill="#9460A0"/>
</g>
<g style="mix-blend-mode:overlay">
<path d="M82.8333 57.1199C85.8249 57.005 88.1569 54.4867 88.042 51.4951C87.9272 48.5036 85.4089 46.1715 82.4173 46.2864C79.4257 46.4013 77.0937 48.9195 77.2085 51.9111C77.3234 54.9027 79.8417 57.2347 82.8333 57.1199Z" fill="#61276C"/>
</g>
<g style="mix-blend-mode:overlay">
<path d="M92.8849 45.3119C92.8849 46.3837 92.5671 47.4314 91.9716 48.3226C91.3762 49.2137 90.5298 49.9083 89.5396 50.3185C88.5494 50.7286 87.4598 50.8359 86.4086 50.6268C85.3574 50.4177 84.3918 49.9016 83.634 49.1438C82.8761 48.3859 82.36 47.4203 82.1509 46.3691C81.9418 45.3179 82.0491 44.2283 82.4593 43.2381C82.8694 42.2479 83.564 41.4016 84.4551 40.8061C85.3463 40.2106 86.394 39.8928 87.4658 39.8928C88.1775 39.8928 88.8821 40.033 89.5396 40.3053C90.1971 40.5777 90.7945 40.9768 91.2977 41.48C91.8009 41.9832 92.2001 42.5806 92.4724 43.2381C92.7447 43.8956 92.8849 44.6003 92.8849 45.3119Z" fill="#8A3285"/>
</g>
<g style="mix-blend-mode:overlay">
<path d="M88.471 42.3058C88.471 43.3776 88.1532 44.4253 87.5577 45.3165C86.9623 46.2076 86.1159 46.9022 85.1257 47.3124C84.1355 47.7225 83.0459 47.8298 81.9947 47.6207C80.9435 47.4116 79.978 46.8955 79.2201 46.1377C78.4622 45.3798 77.9461 44.4142 77.737 43.363C77.5279 42.3118 77.6352 41.2222 78.0454 40.232C78.4555 39.2418 79.1501 38.3955 80.0413 37.8C80.9324 37.2045 81.9802 36.8867 83.0519 36.8867C83.7636 36.8867 84.4683 37.0269 85.1257 37.2992C85.7832 37.5716 86.3806 37.9707 86.8838 38.4739C87.387 38.9771 87.7862 39.5745 88.0585 40.232C88.3308 40.8895 88.471 41.5941 88.471 42.3058Z" fill="#C27CAE"/>
</g>
<g style="mix-blend-mode:overlay">
<path d="M84.5576 39.515C87.5514 39.515 89.9784 37.0881 89.9784 34.0943C89.9784 31.1005 87.5514 28.6736 84.5576 28.6736C81.5638 28.6736 79.1369 31.1005 79.1369 34.0943C79.1369 37.0881 81.5638 39.515 84.5576 39.515Z" fill="#C5639D"/>
</g>
<g style="mix-blend-mode:overlay">
<path d="M83.5534 32.9674C86.5472 32.9674 88.9742 30.5405 88.9742 27.5467C88.9742 24.5529 86.5472 22.126 83.5534 22.126C80.5596 22.126 78.1327 24.5529 78.1327 27.5467C78.1327 30.5405 80.5596 32.9674 83.5534 32.9674Z" fill="#D88AB5"/>
</g>
<g style="mix-blend-mode:overlay">
<path d="M91.5272 32.9674C94.521 32.9674 96.9479 30.5405 96.9479 27.5467C96.9479 24.5529 94.521 22.126 91.5272 22.126C88.5334 22.126 86.1064 24.5529 86.1064 27.5467C86.1064 30.5405 88.5334 32.9674 91.5272 32.9674Z" fill="#C51758"/>
</g>
<g style="mix-blend-mode:overlay">
<path d="M87.7327 25.4338C90.7243 25.319 93.0563 22.8007 92.9414 19.8091C92.8266 16.8175 90.3083 14.4855 87.3167 14.6004C84.3251 14.7152 81.9931 17.2335 82.108 20.2251C82.2228 23.2167 84.7411 25.5487 87.7327 25.4338Z" fill="#5C1925"/>
</g>
<g style="mix-blend-mode:overlay">
<path d="M76.3384 23.8932C79.3322 23.8932 81.7591 21.4663 81.7591 18.4725C81.7591 15.4787 79.3322 13.0518 76.3384 13.0518C73.3446 13.0518 70.9177 15.4787 70.9177 18.4725C70.9177 21.4663 73.3446 23.8932 76.3384 23.8932Z" fill="#D57C8B"/>
</g>
<path opacity="0.9" d="M82.118 24.7172C85.31 24.7172 87.8976 22.1296 87.8976 18.9376C87.8976 15.7456 85.31 13.158 82.118 13.158C78.926 13.158 76.3384 15.7456 76.3384 18.9376C76.3384 22.1296 78.926 24.7172 82.118 24.7172Z" fill="#C00E2B"/>
<g style="mix-blend-mode:overlay">
<path d="M96.9256 37.7669C97.2006 34.7858 95.0068 32.1462 92.0257 31.8712C89.0445 31.5962 86.4049 33.79 86.13 36.7711C85.855 39.7523 88.0488 42.3919 91.0299 42.6668C94.011 42.9418 96.6506 40.748 96.9256 37.7669Z" fill="#C51574"/>
</g>
<g style="mix-blend-mode:overlay">
<path d="M44.9477 35.068C47.9415 35.068 50.3684 32.6411 50.3684 29.6473C50.3684 26.6535 47.9415 24.2266 44.9477 24.2266C41.9539 24.2266 39.527 26.6535 39.527 29.6473C39.527 32.6411 41.9539 35.068 44.9477 35.068Z" fill="#DCDB21"/>
</g>
<g style="mix-blend-mode:overlay">
<path d="M43.8129 25.4364C43.8129 26.5082 43.4951 27.5559 42.8996 28.4471C42.3041 29.3382 41.4578 30.0328 40.4676 30.443C39.4774 30.8531 38.3878 30.9604 37.3366 30.7513C36.2854 30.5423 35.3198 30.0261 34.5619 29.2683C33.8041 28.5104 33.288 27.5448 33.0789 26.4936C32.8698 25.4424 32.9771 24.3528 33.3872 23.3626C33.7974 22.3724 34.492 21.5261 35.3831 20.9306C36.2743 20.3352 37.322 20.0173 38.3938 20.0173C39.831 20.0173 41.2094 20.5883 42.2257 21.6045C43.2419 22.6208 43.8129 23.9992 43.8129 25.4364Z" fill="#DC911B"/>
</g>
<g style="mix-blend-mode:color-burn">
<path d="M44.158 33.443C44.158 34.5148 43.8402 35.5625 43.2448 36.4537C42.6493 37.3448 41.803 38.0394 40.8127 38.4496C39.8225 38.8597 38.7329 38.967 37.6818 38.7579C36.6306 38.5488 35.665 38.0327 34.9071 37.2749C34.1492 36.517 33.6331 35.5514 33.424 34.5002C33.2149 33.449 33.3222 32.3594 33.7324 31.3692C34.1425 30.379 34.8371 29.5327 35.7283 28.9372C36.6194 28.3417 37.6672 28.0239 38.739 28.0239C40.1762 28.0239 41.5545 28.5949 42.5708 29.6111C43.5871 30.6274 44.158 32.0058 44.158 33.443Z" fill="#A1BF37"/>
</g>
<g style="mix-blend-mode:color">
<path d="M44.8861 43.5561C47.8799 43.5561 50.3069 41.1291 50.3069 38.1353C50.3069 35.1415 47.8799 32.7146 44.8861 32.7146C41.8923 32.7146 39.4654 35.1415 39.4654 38.1353C39.4654 41.1291 41.8923 43.5561 44.8861 43.5561Z" fill="#75AD40"/>
</g>
</g>
</g>
<path d="M62.7426 2.3678C62.7427 2.83627 62.6039 3.29424 62.3437 3.6838C62.0835 4.07336 61.7136 4.377 61.2808 4.55632C60.848 4.73565 60.3718 4.7826 59.9123 4.69123C59.4528 4.59986 59.0308 4.37429 58.6995 4.04304C58.3683 3.71178 58.1427 3.28973 58.0513 2.83026C57.96 2.3708 58.0069 1.89455 58.1862 1.46177C58.3656 1.02899 58.6692 0.659106 59.0588 0.398909C59.4483 0.138713 59.9063 -0.0001093 60.3748 6.45684e-08C61.0027 6.45684e-08 61.605 0.249464 62.0491 0.693513C62.4931 1.13756 62.7426 1.73982 62.7426 2.3678Z" fill="#CA438C"/>
<path opacity="0.9" d="M54.6434 13.7673C54.6768 11.5 52.8658 9.63495 50.5984 9.60162C48.3311 9.5683 46.4661 11.3793 46.4328 13.6466C46.3994 15.9139 48.2105 17.779 50.4778 17.8123C52.7451 17.8456 54.6101 16.0346 54.6434 13.7673Z" fill="#E7B141"/>
<path opacity="0.9" d="M56.2684 15.9155C59.184 15.9155 61.5476 13.552 61.5476 10.6363C61.5476 7.72074 59.184 5.35718 56.2684 5.35718C53.3528 5.35718 50.9893 7.72074 50.9893 10.6363C50.9893 13.552 53.3528 15.9155 56.2684 15.9155Z" fill="#A2C037"/>
<g style="mix-blend-mode:overlay">
<path d="M79.3357 9.11793C79.3357 9.67067 79.1718 10.211 78.8647 10.6706C78.5576 11.1302 78.1212 11.4884 77.6105 11.6999C77.0999 11.9114 76.5379 11.9668 75.9958 11.8589C75.4537 11.7511 74.9557 11.4849 74.5649 11.0941C74.174 10.7032 73.9079 10.2053 73.8 9.66315C73.6922 9.12103 73.7475 8.55912 73.9591 8.04845C74.1706 7.53779 74.5288 7.10132 74.9884 6.79423C75.448 6.48715 75.9883 6.32324 76.541 6.32324C77.2822 6.32324 77.9931 6.61768 78.5172 7.14179C79.0413 7.66589 79.3357 8.37674 79.3357 9.11793Z" fill="#A6478F"/>
</g>
<g style="mix-blend-mode:overlay">
<path d="M75.3655 8.68155C75.3655 9.14701 75.2275 9.60202 74.9689 9.98904C74.7103 10.3761 74.3427 10.6777 73.9127 10.8558C73.4826 11.034 73.0094 11.0806 72.5529 10.9898C72.0964 10.8989 71.6771 10.6748 71.3479 10.3457C71.0188 10.0165 70.7947 9.5972 70.7039 9.14068C70.613 8.68416 70.6597 8.21097 70.8378 7.78093C71.0159 7.3509 71.3175 6.98335 71.7046 6.72475C72.0916 6.46615 72.5466 6.32813 73.0121 6.32812C73.6362 6.32812 74.2348 6.57607 74.6762 7.01743C75.1175 7.45878 75.3655 8.05738 75.3655 8.68155Z" fill="#312B80"/>
</g>
<path d="M60.7972 7.03527C60.7973 7.31134 60.7156 7.58123 60.5623 7.81082C60.409 8.04042 60.1911 8.21939 59.936 8.32511C59.681 8.43083 59.4004 8.45855 59.1296 8.40476C58.8588 8.35097 58.6101 8.21809 58.4148 8.02292C58.2196 7.82775 58.0866 7.57906 58.0327 7.30831C57.9788 7.03756 58.0064 6.75691 58.112 6.50185C58.2177 6.24678 58.3966 6.02878 58.6261 5.87539C58.8556 5.72201 59.1255 5.64014 59.4015 5.64014C59.5848 5.64006 59.7663 5.6761 59.9356 5.74618C60.1049 5.81626 60.2588 5.91901 60.3884 6.04857C60.518 6.17812 60.6208 6.33195 60.691 6.50125C60.7611 6.67055 60.7972 6.85201 60.7972 7.03527Z" fill="#F2CD35"/>
<path d="M14.4824 80.6531C13.2636 80.6531 12.2206 80.2234 11.3535 79.364C10.4941 78.4968 10.0644 77.4539 10.0644 76.2351C10.0644 75.0164 10.4941 73.9734 11.3535 73.1062C12.2206 72.2468 13.2636 71.8171 14.4824 71.8171C15.7011 71.8171 16.7441 72.2468 17.6113 73.1062C18.4706 73.9734 18.9003 75.0164 18.9003 76.2351C18.9003 77.4539 18.4706 78.4968 17.6113 79.364C16.7441 80.2234 15.7011 80.6531 14.4824 80.6531ZM14.4824 67.8328C13.3417 67.8328 12.2519 68.0554 11.2128 68.5007C10.205 68.9226 9.31439 69.5203 8.54095 70.2937C7.76751 71.0671 7.16595 71.9578 6.73626 72.9656C6.29876 74.0046 6.08001 75.0945 6.08001 76.2351C6.08001 77.3757 6.29876 78.4656 6.73626 79.5046C7.16595 80.5125 7.76751 81.4031 8.54095 82.1765C9.31439 82.95 10.205 83.5515 11.2128 83.9812C12.2519 84.4187 13.3417 84.6375 14.4824 84.6375C15.623 84.6375 16.7128 84.4187 17.7519 83.9812C18.7597 83.5515 19.6503 82.95 20.4238 82.1765C21.1972 81.4031 21.7949 80.5125 22.2167 79.5046C22.662 78.4656 22.8847 77.3757 22.8847 76.2351C22.8847 75.0945 22.662 74.0046 22.2167 72.9656C21.7949 71.9578 21.1972 71.0671 20.4238 70.2937C19.6503 69.5203 18.7597 68.9226 17.7519 68.5007C16.7128 68.0554 15.623 67.8328 14.4824 67.8328ZM30.291 81.3679L30.3027 76.8093L34.7792 76.7859C35.373 76.7859 35.8925 77.0007 36.3378 77.4304C36.8378 77.9148 37.0878 78.5476 37.0878 79.3289C37.0878 79.7976 36.8339 80.2585 36.3261 80.7117C35.8183 81.1648 35.3027 81.3914 34.7792 81.3914L30.291 81.3679ZM31.5566 73.5398C31.5566 73.532 31.5566 73.5281 31.5566 73.5281H30.2089L30.1972 71.4421V71.1375H38.037C38.2792 71.1375 38.498 70.9773 38.6933 70.657C38.8808 70.3367 38.9706 69.9539 38.9628 69.5085C38.9472 68.9929 38.8574 68.6062 38.6933 68.3484C38.4824 68.0281 38.2636 67.8679 38.037 67.8679H26.4003C26.2285 67.8679 26.0683 67.9617 25.9199 68.1492C25.7636 68.3523 25.6855 68.575 25.6855 68.8171C25.6855 68.9812 25.666 71.5593 25.6269 76.5515C25.6113 79.0437 25.5917 81.5242 25.5683 83.9929C25.5683 84.1335 25.6503 84.2742 25.8144 84.4148C26.0019 84.5632 26.2206 84.6375 26.4706 84.6375H35.9042C36.4355 84.6375 37.0058 84.5125 37.6152 84.2625C38.248 84.0046 38.8261 83.6531 39.3495 83.2078C40.6152 82.1296 41.248 80.8367 41.248 79.3289C41.248 77.1882 40.6152 75.6218 39.3495 74.6296C38.4277 73.9031 37.2792 73.5398 35.9042 73.5398H31.5566ZM54.1035 77.6179V83.6648C54.1035 83.9226 54.3417 84.1531 54.8183 84.3562C55.2949 84.5515 55.8691 84.6453 56.541 84.6375C57.2988 84.6218 57.873 84.5281 58.2636 84.3562C58.7402 84.1375 58.9785 83.907 58.9785 83.6648V68.8289C58.9785 68.571 58.7402 68.3445 58.2636 68.1492C57.7792 67.946 57.205 67.8523 56.541 67.8679C55.7753 67.8757 55.2011 67.9695 54.8183 68.1492C54.3417 68.3601 54.1035 68.5867 54.1035 68.8289V74.3015H48.4433V68.8289C48.4433 68.571 48.205 68.3445 47.7285 68.1492C47.2519 67.946 46.6777 67.8523 46.0058 67.8679C45.248 67.8757 44.6738 67.9695 44.2831 68.1492C43.8066 68.3601 43.5683 68.5867 43.5683 68.8289V83.6648C43.5683 83.9226 43.8066 84.1531 44.2831 84.3562C44.7675 84.5515 45.3417 84.6453 46.0058 84.6375C46.7636 84.6218 47.3378 84.5281 47.7285 84.3562C48.205 84.1375 48.4433 83.907 48.4433 83.6648V77.6179H54.1035ZM77.5292 68.2078C77.0527 68.0125 76.4824 67.9187 75.8183 67.9265C75.0605 67.9421 74.4863 68.0359 74.0956 68.2078C73.6738 68.4031 73.4433 68.5984 73.4042 68.7937L66.3613 78.7664V68.8992C66.3613 68.6414 66.123 68.4109 65.6464 68.2078C65.162 68.0125 64.5878 67.9187 63.9238 67.9265C63.166 67.9421 62.5956 68.0359 62.2128 68.2078C61.7363 68.4265 61.498 68.657 61.498 68.8992V83.6648C61.498 83.9226 61.7363 84.1531 62.2128 84.3562C62.6894 84.5515 63.2597 84.6453 63.9238 84.6375C64.6816 84.6218 65.2558 84.5281 65.6464 84.3562C66.0527 84.1687 66.2831 83.9812 66.3378 83.7937L73.3808 73.3757V83.6648C73.3808 83.9226 73.6191 84.1531 74.0956 84.3562C74.58 84.5515 75.1542 84.6453 75.8183 84.6375C76.5761 84.6218 77.1464 84.5281 77.5292 84.3562C78.0058 84.1375 78.2441 83.907 78.2441 83.6648V68.8992C78.2441 68.6414 78.0058 68.4109 77.5292 68.2078ZM99.1152 68.1492C98.623 67.946 98.037 67.8484 97.3574 67.8562C97.0683 67.864 96.8183 67.8796 96.6074 67.9031C95.8808 67.8718 95.3027 68.1062 94.873 68.6062C94.8652 68.614 94.2831 69.4265 93.1269 71.0437C91.9785 72.6687 91.0058 73.9421 90.2089 74.864C89.412 73.9421 88.4355 72.6687 87.2792 71.0437C86.1308 69.4265 85.5527 68.614 85.5449 68.6062C85.1152 68.1062 84.537 67.8718 83.8105 67.9031C83.5527 67.8718 83.3027 67.8562 83.0605 67.8562C82.287 67.8718 81.7011 67.9695 81.3027 68.1492C80.8183 68.3679 80.5761 68.6023 80.5761 68.8523V83.6414C80.5761 83.907 80.8183 84.1414 81.3027 84.3445C81.7949 84.5476 82.3808 84.6453 83.0605 84.6375C83.8339 84.6218 84.4199 84.5242 84.8183 84.3445C85.3027 84.1257 85.5449 83.8914 85.5449 83.6414V75.3328C87.412 77.614 88.4199 78.8367 88.5683 79.0007C89.0839 79.3679 89.6308 79.5515 90.2089 79.5515C90.787 79.5515 91.33 79.3679 91.8378 79.0007C92.0253 78.7976 93.037 77.575 94.873 75.3328V83.6414C94.873 83.907 95.1152 84.1414 95.5995 84.3445C96.0917 84.5476 96.6777 84.6453 97.3574 84.6375C98.1308 84.6218 98.7167 84.5242 99.1152 84.3445C99.5995 84.1257 99.8417 83.8914 99.8417 83.6414V68.8523C99.8417 68.5867 99.5995 68.3523 99.1152 68.1492ZM118.357 68.2078C117.881 68.0125 117.31 67.9187 116.646 67.9265C115.889 67.9421 115.314 68.0359 114.924 68.2078C114.502 68.4031 114.271 68.5984 114.232 68.7937L107.189 78.7664V68.8992C107.189 68.6414 106.951 68.4109 106.475 68.2078C105.99 68.0125 105.416 67.9187 104.752 67.9265C103.994 67.9421 103.424 68.0359 103.041 68.2078C102.564 68.4265 102.326 68.657 102.326 68.8992V83.6648C102.326 83.9226 102.564 84.1531 103.041 84.3562C103.518 84.5515 104.088 84.6453 104.752 84.6375C105.51 84.6218 106.084 84.5281 106.475 84.3562C106.881 84.1687 107.111 83.9812 107.166 83.7937L114.209 73.3757V83.6648C114.209 83.9226 114.447 84.1531 114.924 84.3562C115.408 84.5515 115.982 84.6453 116.646 84.6375C117.404 84.6218 117.975 84.5281 118.357 84.3562C118.834 84.1375 119.072 83.907 119.072 83.6648V68.8992C119.072 68.6414 118.834 68.4109 118.357 68.2078Z" fill="white"/>
</svg>
