<svg width="19" height="19" viewBox="0 0 19 19" fill="none" xmlns="http://www.w3.org/2000/svg">
<g clip-path="url(#clip0)">
<path d="M17.3132 4.64592C17.158 3.12925 16.9109 1.94836 16.5199 1.4842C14.9079 -0.424286 3.61588 -0.563951 2.3338 1.4842C2.02018 1.986 1.80023 3.1627 1.65261 4.64843C1.17633 4.70446 0.80542 5.10548 0.80542 5.5964V7.45429C0.80542 7.86744 1.06719 8.21577 1.43266 8.35167C1.3461 11.278 1.41635 14.331 1.54598 15.8493C1.54598 17.0214 2.33338 16.827 2.33338 16.827H3.07144V18.0923C3.07144 18.5941 3.5887 19.0001 4.22598 19.0001C4.86409 19.0001 5.38136 18.5941 5.38136 18.0923V16.827H13.9679V18.0923C13.9679 18.5941 14.4847 19.0001 15.1228 19.0001C15.7601 19.0001 16.2774 18.5941 16.2774 18.0923V16.827H16.5199C16.5199 16.827 17.4466 16.9541 17.506 16.4021C17.506 14.8879 17.6013 11.5322 17.5227 8.36463C17.9111 8.24295 18.1947 7.885 18.1947 7.45429V5.5964C18.1951 5.09377 17.8062 4.68607 17.3132 4.64592ZM5.09157 1.75643H13.7622V3.0682H5.09157V1.75643ZM5.21535 15.3329C4.53458 15.3329 3.98303 14.7809 3.98303 14.1001C3.98303 13.4198 4.53458 12.8682 5.21535 12.8682C5.89612 12.8682 6.44809 13.4198 6.44809 14.1001C6.44809 14.7809 5.89654 15.3329 5.21535 15.3329ZM13.7157 15.3329C13.0354 15.3329 12.4826 14.7809 12.4826 14.1001C12.4826 13.4198 13.035 12.8682 13.7157 12.8682C14.3965 12.8682 14.9481 13.4198 14.9481 14.1001C14.9485 14.7809 14.3965 15.3329 13.7157 15.3329ZM15.2826 9.93859H3.57114V3.7958H15.2826V9.93859Z" fill="#101113"/>
</g>
<defs>
<clipPath id="clip0">
<rect width="19" height="19" fill="white"/>
</clipPath>
</defs>
</svg>
