<svg width="23" height="16" viewBox="0 0 23 16" fill="none" xmlns="http://www.w3.org/2000/svg">
<path fill-rule="evenodd" clip-rule="evenodd" d="M4.46815 1.17302C4.83439 0.722581 5.56688 0.497361 6.11624 0.422287C9.77866 -0.140762 13.2213 -0.140762 16.8838 0.422287C17.3965 0.497361 18.1656 0.722581 18.4952 1.17302C18.8981 2.52434 19.2643 3.87566 19.6306 5.26452C19.8137 5.11437 20.0334 5.0393 20.2898 5.0393H21.8647C22.5239 5.0393 23 5.56481 23 6.20293C23 6.80352 22.4873 7.32903 21.8647 7.32903H21.1322C21.3519 7.81701 21.535 8.49267 21.535 9.50616C21.5717 11.4581 21.5717 13.41 21.5717 15.3619C21.5717 15.7372 21.2787 16 20.949 16H18.0924C17.7627 16 17.4697 15.7372 17.4697 15.3619C17.4697 15.0991 17.4697 14.8364 17.4697 14.5736H5.53025C5.53025 14.8364 5.53025 15.0991 5.53025 15.3619C5.53025 15.7372 5.23726 16 4.87102 16H2.05096C1.68471 16 1.39172 15.7372 1.39172 15.3619C1.39172 13.41 1.42834 11.4581 1.42834 9.50616C1.42834 8.49267 1.61146 7.81701 1.83121 7.32903H1.09873C0.512739 7.32903 0 6.80352 0 6.20293C0 5.56481 0.476115 5.0393 1.09873 5.0393H2.71019C2.92994 5.0393 3.14968 5.11437 3.3328 5.26452C3.69904 3.87566 4.06529 2.52434 4.46815 1.17302ZM8.89968 11.4205H14.1003C14.4299 11.4205 14.6863 11.6833 14.6863 12.0211C14.6863 12.3589 14.4299 12.6217 14.1003 12.6217H8.89968C8.57006 12.6217 8.31369 12.3589 8.31369 12.0211C8.31369 11.6833 8.57006 11.4205 8.89968 11.4205ZM5.53025 1.69853C5.23726 2.82463 4.94427 3.98827 4.61465 5.15191C9.0828 4.66393 13.8806 4.66393 18.3487 5.15191C18.0557 3.98827 17.7261 2.82463 17.4331 1.69853C13.5143 0.985337 9.48567 0.985337 5.53025 1.69853ZM18.129 8.04223C17.4331 8.04223 16.8471 8.60528 16.8471 9.31848C16.8471 10.0317 17.4331 10.6323 18.129 10.6323C18.8248 10.6323 19.3742 10.0317 19.3742 9.31848C19.3742 8.60528 18.8248 8.04223 18.129 8.04223ZM4.87102 8.04223C5.56688 8.04223 6.11624 8.60528 6.11624 9.31848C6.11624 10.0317 5.56688 10.6323 4.87102 10.6323C4.17516 10.6323 3.6258 10.0317 3.6258 9.31848C3.6258 8.60528 4.17516 8.04223 4.87102 8.04223Z" fill="#101113"/>
</svg>
