<svg width="18" height="19" viewBox="0 0 18 19" fill="none" xmlns="http://www.w3.org/2000/svg">
<path d="M8.84071 6.19434C8.38396 6.19434 8.08272 6.24065 7.90918 6.28737V9.3803C8.1074 9.42702 8.34008 9.44232 8.66404 9.44232C9.85686 9.44232 10.5929 8.80472 10.5929 7.73294C10.5933 6.76909 9.9595 6.19434 8.84071 6.19434Z" fill="#101113"/>
<path d="M15.6696 0H2.33043C1.1525 0 0.198242 1.00768 0.198242 2.25064V16.7498C0.198242 17.9927 1.15289 19 2.33043 19H15.6696C16.8476 19 17.8014 17.9923 17.8014 16.7498V2.25064C17.8018 1.00727 16.8476 0 15.6696 0ZM16.4879 16.3888C16.4879 17.0657 15.9685 17.6131 15.328 17.6131H2.64773C2.00686 17.6131 1.48743 17.0649 1.48743 16.3888V2.63767C1.48743 1.96161 2.00686 1.41332 2.64773 1.41332H15.3276C15.9685 1.41332 16.4876 1.96161 16.4876 2.63767L16.4879 16.3888Z" fill="#101113"/>
<path d="M15.3277 2.27686H2.64779C2.45898 2.27686 2.30542 2.43812 2.30542 2.63783V16.389C2.30542 16.5874 2.45859 16.7499 2.64779 16.7499H15.3277C15.5161 16.7499 15.6697 16.5878 15.6697 16.389V2.63742C15.6697 2.43812 15.5165 2.27686 15.3277 2.27686ZM11.9067 10.1576C11.1417 10.9189 10.0041 11.2608 8.67848 11.2608C8.38429 11.2608 8.13241 11.2451 7.90912 11.2141V14.9694H5.7025V4.62384C6.39665 4.49938 7.36187 4.40593 8.73136 4.40593C10.1157 4.40593 11.0998 4.68587 11.763 5.24573C12.3956 5.77377 12.8218 6.64458 12.8218 7.67004C12.8218 8.69675 12.4967 9.56756 11.9067 10.1576Z" fill="#101113"/>
</svg>
