<svg width="16" height="20" viewBox="0 0 16 20" fill="none" xmlns="http://www.w3.org/2000/svg">
<path d="M14.812 9.45312C14.541 9.48455 14.2701 9.50003 14.0011 9.50003C12.6776 9.50003 11.3926 9.12406 10.2842 8.41992L9.43389 11.8159C9.40904 11.9152 9.37409 12.0091 9.33201 12.0982C11.493 13.7467 12.9588 16.1166 13.4665 18.7918C13.5713 19.3443 13.2085 19.8771 12.6561 19.9819C12.5919 19.9941 12.5281 20 12.4652 20C11.9857 20 11.5587 19.6598 11.466 19.1715C11.0472 16.9652 9.82879 15.0137 8.03286 13.6685L8.02526 13.6785C6.38314 15.8361 3.79239 17.1183 1.08313 17.1183C1.05849 17.1183 1.03406 17.1182 1.00935 17.1179C0.447068 17.1132 -0.00478099 16.6372 3.81933e-05 16.0749C0.0047895 15.5157 0.459693 15.0494 1.0179 15.0494C1.02089 15.0494 1.02388 15.0494 1.02686 15.0494C1.04566 15.0494 1.06467 15.0658 1.0834 15.0658C3.16033 15.0658 5.14604 14.0911 6.40486 12.4371L6.61087 12.1705C6.43425 11.8459 6.37405 11.4588 6.47091 11.072L7.3446 7.58342C6.06698 8.06873 4.92286 8.8903 4.05914 9.95445C3.85789 10.2023 3.56419 10.3312 3.26805 10.3312C3.04264 10.3312 2.81573 10.2568 2.62703 10.1037C2.19039 9.74933 2.1238 9.10818 2.47818 8.6716C3.8211 7.01713 5.70092 5.82815 7.77134 5.32363L8.85158 5.06041C8.85586 5.05932 8.8602 5.05892 8.86448 5.05797C8.88382 5.05355 8.90323 5.05009 8.92278 5.04683C8.93758 5.04432 8.95238 5.04161 8.9671 5.03971C8.98265 5.03781 8.99826 5.03679 9.01387 5.03557C9.0324 5.03407 9.05086 5.03251 9.06926 5.03204C9.081 5.03177 9.09274 5.03238 9.10449 5.03251C9.12614 5.03272 9.14772 5.03299 9.16917 5.03455C9.17908 5.0353 9.18899 5.03686 9.1989 5.03787C9.2215 5.04025 9.24404 5.04263 9.2663 5.04649C9.2777 5.04846 9.2889 5.05138 9.30017 5.05369C9.3204 5.0579 9.34069 5.06197 9.36058 5.0674C9.37538 5.0714 9.3899 5.07663 9.40456 5.08138C9.42058 5.08654 9.43674 5.09136 9.45248 5.09727C9.46945 5.10371 9.48608 5.11138 9.50278 5.11871C9.51588 5.12448 9.52918 5.12985 9.54201 5.13616C9.55837 5.14424 9.57425 5.15347 9.59027 5.16249C9.60324 5.16976 9.6164 5.17675 9.6291 5.18462C9.64288 5.19317 9.65618 5.20274 9.66962 5.21204C9.68421 5.22209 9.69881 5.232 9.71286 5.24279C9.72365 5.25107 9.73403 5.2601 9.74455 5.26892C9.76057 5.2823 9.77639 5.2958 9.79159 5.31012C9.79465 5.31297 9.79797 5.31542 9.80096 5.31834L10.5825 6.07542C11.6479 7.10727 13.1035 7.60134 14.5773 7.43022C15.1365 7.36574 15.6412 7.76573 15.706 8.32428C15.7708 8.88304 15.3706 9.3883 14.812 9.45312ZM9.68272 4.44362C10.9098 4.44362 11.9046 3.4489 11.9046 2.22178C11.9046 0.994651 10.9098 0 9.68272 0C8.45566 0 7.46087 0.994719 7.46087 2.22185C7.46087 3.44897 8.45566 4.44362 9.68272 4.44362Z" fill="currentColor"/>
</svg>
