<svg width="21" height="22" viewBox="0 0 21 22" fill="none" xmlns="http://www.w3.org/2000/svg">
<path d="M9.16682 22C10.827 22 12.2158 20.8165 12.5347 19.25H5.79898C6.11806 20.8165 7.50682 22 9.16682 22Z" fill="currentColor"/>
<path d="M15.5949 10.999C15.5912 10.999 15.5875 10.9999 15.5838 10.9999C12.0464 10.9999 9.16718 8.12146 9.16718 4.58325C9.16718 3.61058 9.39092 2.69112 9.78049 1.8643C9.57874 1.84517 9.3743 1.83325 9.16718 1.83325C5.62343 1.83325 2.75057 4.70595 2.75057 8.24986V10.8055C2.75057 12.6196 1.95582 14.332 0.561514 15.5107C0.0967469 15.9077 -0.109537 16.5401 0.057303 17.1572C0.251669 17.8749 0.961157 18.3333 1.70556 18.3333H16.6243C17.4053 18.3333 18.1414 17.8272 18.2999 17.0618C18.4227 16.4697 18.2119 15.8783 17.7527 15.4924C16.4198 14.3751 15.6489 12.7332 15.5949 10.999Z" fill="currentColor"/>
<path d="M20.1669 4.58339C20.1669 7.11469 18.115 9.16661 15.5835 9.16661C13.0522 9.16661 11.0003 7.11469 11.0003 4.58339C11.0003 2.05209 13.0522 0 15.5835 0C18.115 0 20.1669 2.05209 20.1669 4.58339Z" fill="currentColor"/>
</svg>
