<svg width="25" height="16" viewBox="0 0 25 16" fill="none" xmlns="http://www.w3.org/2000/svg">
<path d="M17.2468 13.2682C15.9941 13.3048 13.9685 13.1119 12.6696 12.9118C6.40794 11.9408 0 11.9764 0 11.9764V15.9999H14.5854C17.4744 15.9999 19.6123 15.7533 21.1212 15.246C22.0623 14.9295 22.7658 14.5162 23.272 13.9824C23.7304 13.499 24.0086 12.9298 24.1037 12.2859C22.4597 12.7779 20.5815 13.1708 17.2468 13.2682Z" fill="black"/>
<path d="M2.46516 9.04668C1.66694 8.56777 0.913224 8.44989 0.905869 8.44881C0.612211 8.40811 0.320345 8.38836 0.0580903 8.38025C0.0195206 8.97053 0 9.62683 0 10.562C0 11.4971 2.02255 10.5558 3.96136 10.6447C3.64205 9.98834 3.14239 9.45299 2.46516 9.04668Z" fill="black"/>
<path d="M1.10281 7.04797C1.1475 7.05438 2.13947 7.20164 3.19283 7.83365C4.33436 8.51852 5.12424 9.5086 5.51441 10.7293C7.60382 10.8609 10.1883 11.0957 12.8863 11.5141C14.6524 11.788 17.3799 12.0372 20.3433 11.6691C22.1184 11.4485 23.3397 11.1906 24.1095 10.7914C24.0721 10.2812 23.9813 9.77062 23.7396 9.27879C23.3055 8.39579 22.236 7.77084 21.2123 7.41971C20.1886 7.06857 18.6062 6.56118 17.3829 5.95114L15.5098 7.82427L14.5096 6.82405L16.0859 5.24769C15.6646 5.00001 15.2516 4.73803 14.8484 4.4621L13.4823 5.82822L12.4821 4.828L13.6952 3.61485C13.3721 3.36013 12.2749 2.40141 12.2749 2.40141V0H11.5676C9.23638 0 7.33978 1.89661 7.33978 4.22786V4.52651H3.53293L3.02992 2.96416H1.73128L1.52698 3.15668C1.42004 3.25744 1.04363 3.66879 0.688724 4.73266C0.475082 5.37288 0.310712 6.12046 0.196182 6.96993C0.479184 6.9812 0.788826 7.0045 1.10281 7.04797Z" fill="black"/>
</svg>
