<svg width="24" height="16" viewBox="0 0 24 16" fill="none" xmlns="http://www.w3.org/2000/svg">
<path d="M23.2727 3.77273V2.54545C23.2727 1.13964 22.1331 0 20.7273 0H2.54545C1.13964 0 0 1.13964 0 2.54545V3.77273C0 3.89823 0.101773 4 0.227273 4H23.0455C23.171 4 23.2727 3.89823 23.2727 3.77273Z" fill="#101113"/>
<path d="M0 5.68174V13.4545C0 14.8603 1.13964 15.9999 2.54545 15.9999H20.7273C22.1331 15.9999 23.2727 14.8603 23.2727 13.4545V5.68174C23.2727 5.55624 23.171 5.45447 23.0455 5.45447H0.227273C0.101773 5.45447 0 5.55624 0 5.68174ZM5.81818 11.6363C5.81818 12.0379 5.49255 12.3636 5.09091 12.3636H4.36364C3.962 12.3636 3.63636 12.0379 3.63636 11.6363V10.909C3.63636 10.5074 3.962 10.1817 4.36364 10.1817H5.09091C5.49255 10.1817 5.81818 10.5074 5.81818 10.909V11.6363Z" fill="#101113"/>
</svg>
