<svg width="26" height="25" viewBox="0 0 26 25" fill="none" xmlns="http://www.w3.org/2000/svg">
<path d="M25.3594 12.231C24.9576 11.8056 24.4236 11.5648 23.856 11.5535L23.2846 11.5421L23.1355 10.9574C22.2535 7.50013 19.8725 4.78854 16.8575 3.52268C17.2189 4.20198 17.4255 4.98553 17.4255 5.81937C17.4255 8.40595 15.4402 10.5103 13 10.5103C10.5598 10.5103 8.57454 8.40595 8.57454 5.81937L8.08528 9.54725C8.08528 11.244 12.7922 10.9574 14.3929 10.9574C15.9936 10.9574 18.1072 6.81472 18.1072 5.11798C18.1072 3.42124 14.6007 2.7422 13 2.7422C12.852 2.7422 12.7046 2.74554 12.5578 2.75205H12.4203C10.992 2.7478 9.83133 1.51508 9.83133 0.000215156H8.30887C8.30887 1.04261 8.65579 2.00051 9.2331 2.75205H8.49603C7.06442 2.75205 5.89975 1.5175 5.89975 0H4.3773C4.3773 2.11143 5.79876 3.87729 7.68051 4.27955C5.36968 5.72056 3.59831 8.08099 2.86454 10.9574L2.71539 11.5421L2.14402 11.5535C1.57645 11.5648 1.04237 11.8056 0.640089 12.2315C0.227505 12.6693 0 13.2518 0 13.8711C0 15.1253 0.961884 16.165 2.14412 16.1887L2.71544 16.2002L2.86459 16.7849C4.09859 21.6218 8.2664 25 13 25C17.7336 25 21.9014 21.6218 23.1354 16.7849L23.2846 16.2002L23.8559 16.1887C25.0382 16.165 26 15.1253 26 13.8711C26 13.2518 25.7725 12.6693 25.3594 12.231ZM8.08528 12.9573C7.42103 12.9573 6.88061 13.5302 6.88061 14.2343H5.35816C5.35816 12.6403 6.58155 11.3435 8.08528 11.3435C9.589 11.3435 10.8124 12.6403 10.8124 14.2343H9.28994C9.28999 13.5302 8.74957 12.9573 8.08528 12.9573ZM13.0001 21.262C11.3473 21.262 9.79793 20.3232 8.95663 18.812L10.2678 17.9919C10.8366 19.0135 11.8835 19.6482 13.0001 19.6482C14.1166 19.6482 15.1635 19.0135 15.7323 17.9919L17.0435 18.812C16.2022 20.3232 14.6528 21.262 13.0001 21.262ZM19.1194 14.2343C19.1194 13.5302 18.579 12.9573 17.9148 12.9573C17.2505 12.9573 16.7101 13.5302 16.7101 14.2343H15.1877C15.1877 12.6403 16.4111 11.3435 17.9148 11.3435C19.4185 11.3435 20.6419 12.6403 20.6419 14.2343H19.1194Z" fill="#101113"/>
</svg>
