<svg width="19" height="19" viewBox="0 0 19 19" fill="none" xmlns="http://www.w3.org/2000/svg">
<path d="M11.3689 15.7863H7.63087L7.221 17.6016H4.12842V18.7149H14.8714V17.6016H11.7788L11.3689 15.7863Z" fill="#101113"/>
<path d="M0 13.5598C0 14.1746 0.498416 14.673 1.11328 14.673H17.8867C18.5016 14.673 19 14.1746 19 13.5598V12.0762H0V13.5598Z" fill="#101113"/>
<path d="M17.8867 0.285034H1.11328C0.498416 0.285034 0 0.78345 0 1.39832V10.9629H19V1.39832C19 0.783487 18.5016 0.285034 17.8867 0.285034ZM5.14477 7.49932L9.12612 3.518L9.91332 4.3052L5.93197 8.28652L5.14477 7.49932ZM9.87388 8.28652L9.08668 7.49932L13.068 3.518L13.8552 4.3052L9.87388 8.28652Z" fill="#101113"/>
</svg>
