<svg width="23" height="20" viewBox="0 0 23 20" fill="none" xmlns="http://www.w3.org/2000/svg">
<g clip-path="url(#clip0)">
<path d="M20 0L22.8571 5.71429H17.1429L20 0ZM12.8571 0H18.5714L15.7143 5.71429L12.8571 0ZM8.57143 5.71429L11.4286 0L14.2857 5.71429H8.57143ZM4.28571 0H10L7.14286 5.71429L4.28571 0ZM0 5.71429L2.85714 0L5.71429 5.71429H0ZM10 20L0 7.14286H5.71429L10 20ZM15.7143 7.14286L11.4286 20L7.14286 7.14286H15.7143ZM22.8571 7.14286L12.8571 20L17.1429 7.14286H22.8571Z" fill="#101113"/>
</g>
<defs>
<clipPath id="clip0">
<rect width="22.8571" height="20" fill="white"/>
</clipPath>
</defs>
</svg>
