<svg width="19" height="19" viewBox="0 0 19 19" fill="none" xmlns="http://www.w3.org/2000/svg">
<path d="M5.72893 11.2791C5.6521 11.2856 5.57546 11.2889 5.49863 11.2889C5.28846 11.2889 5.08404 11.2584 4.88387 11.2121L0.252171 15.8439C0.0248297 16.0709 0.0248297 16.4397 0.252171 16.6667L1.4509 17.8657C1.67824 18.0928 2.04657 18.0928 2.27329 17.8657L7.83998 12.3001L6.80834 11.187L5.72893 11.2791Z" fill="black"/>
<path d="M17.9181 3.8587C17.7008 3.64144 17.349 3.64144 17.1316 3.8587L14.1301 6.86018C13.8461 7.14389 13.386 7.14389 13.102 6.86018C12.8193 6.57668 12.8193 6.11701 13.102 5.83359L16.0887 2.84751C16.3144 2.62165 16.3144 2.2555 16.0887 2.02912C15.862 1.80355 15.496 1.80355 15.2704 2.02912L12.2849 5.0149C12.0009 5.29891 11.5413 5.29891 11.2573 5.0149C10.9739 4.73152 10.9739 4.27152 11.2573 3.98836L14.2583 0.987177C14.4762 0.769582 14.4762 0.417125 14.2583 0.199235C14.0409 -0.0183972 13.6885 -0.0183972 13.4705 0.199235L10.094 3.57587C9.28225 4.38818 9.02582 5.52839 9.28864 6.5659L11.5521 8.82949C12.5895 9.09135 13.7303 8.83481 14.5412 8.02317L17.9181 4.64672C18.1361 4.42912 18.1361 4.07629 17.9181 3.8587Z" fill="black"/>
<path d="M1.51706 0.504396C1.40136 0.388657 1.2449 0.325195 1.08423 0.325195C1.05004 0.325195 1.01567 0.328112 0.982115 0.333723C0.786634 0.366802 0.618915 0.492286 0.532748 0.670896C-0.456286 2.71516 -0.0429517 5.16128 1.56254 6.76684L4.4348 9.63873C4.71819 9.92245 5.10136 10.0795 5.49874 10.0795C5.54124 10.0795 5.58384 10.0777 5.62633 10.0742L7.29396 9.9319L14.5657 17.7766C14.6786 17.8985 14.8368 17.9693 15.0034 17.9726C15.0068 17.9726 15.0104 17.9726 15.014 17.9726C15.1769 17.9726 15.3329 17.9083 15.4486 17.7934L16.694 16.5477C16.8091 16.4329 16.8734 16.2771 16.8734 16.1147C16.8734 15.9523 16.8091 15.7964 16.6945 15.6816L1.51706 0.504396Z" fill="black"/>
</svg>
