<svg width="21" height="17" viewBox="0 0 21 17" fill="none" xmlns="http://www.w3.org/2000/svg">
<path d="M16.3475 2.62156H14.1626V2.34589C14.1626 1.05236 13.1102 0 11.8167 0H8.46826C7.17474 0 6.12238 1.05236 6.12238 2.34589V2.62156H3.93746C1.76634 2.62156 0 4.38789 0 6.55902V16.4057C0 16.7339 0.266082 17 0.594286 17H19.6907C20.0189 17 20.285 16.7339 20.285 16.4057V6.55902C20.285 4.38789 18.5186 2.62156 16.3475 2.62156ZM7.31095 2.34589C7.31095 1.70774 7.83012 1.18857 8.46826 1.18857H11.8167C12.4549 1.18857 12.974 1.70774 12.974 2.34589V2.62156H7.31095V2.34589ZM13.629 10.5316C13.629 10.8598 13.3629 11.1259 13.0347 11.1259H11.4576V12.703C11.4576 13.0312 11.1915 13.2973 10.8633 13.2973H9.42166C9.09345 13.2973 8.82737 13.0312 8.82737 12.703V11.1259H7.25029C6.92209 11.1259 6.65601 10.8598 6.65601 10.5316V9.08997C6.65601 8.76176 6.92209 8.49568 7.25029 8.49568H8.82741V6.91856C8.82741 6.59036 9.09349 6.32428 9.4217 6.32428H10.8633C11.1915 6.32428 11.4576 6.59036 11.4576 6.91856V8.49568H13.0347C13.3629 8.49568 13.629 8.76176 13.629 9.08997V10.5316Z" fill="#101113"/>
</svg>
