<svg width="17" height="18" viewBox="0 0 17 18" fill="none" xmlns="http://www.w3.org/2000/svg">
<path d="M16.7994 2.87251C16.3033 2.01512 15.5901 1.29604 14.7374 0.79302C13.8578 0.274219 12.8505 0 11.8242 0C10.798 0 9.79059 0.274219 8.91109 0.79302C8.05827 1.29607 7.3452 2.01516 6.84904 2.87251C6.74775 3.04755 6.75545 3.26503 6.86886 3.43245L9.13683 6.78013C9.14998 6.77918 9.16309 6.77813 9.17652 6.77813H10.8101L10.4767 5.77768C10.3846 5.50139 10.5339 5.20274 10.8102 5.11063C11.0865 5.01859 11.3851 5.1679 11.4773 5.44416L11.8242 6.48517L12.1712 5.44416C12.2633 5.16786 12.5619 5.01852 12.8383 5.11063C13.1146 5.20274 13.2639 5.50136 13.1718 5.77768L12.8384 6.77813H14.472C14.4854 6.77813 14.4985 6.77914 14.5117 6.78013L16.7796 3.43245C16.893 3.26503 16.9007 3.04755 16.7994 2.87251Z" fill="#101113"/>
<path d="M9.60233 16.9078C9.60233 17.51 10.0923 18 10.6945 18H12.9539C13.5561 18 14.0461 17.51 14.0461 16.9078V7.83276H9.60233V16.9078Z" fill="#101113"/>
<path d="M0.56485 6.70312H5.57346V11.8617H0.56485V6.70312Z" fill="#101113"/>
<path d="M0 16.9078C0 17.51 0.489938 18 1.09216 18H5.04612C5.64834 18 6.13828 17.51 6.13828 16.9078V12.9164H0V16.9078Z" fill="#101113"/>
<path d="M5.00861 1.09217C5.00861 0.567714 4.63437 0.172241 4.13814 0.172241C4.01266 0.172241 3.88575 0.197554 3.76098 0.247511L1.98563 0.957632C1.49766 1.15282 1.12968 1.69634 1.12968 2.22189V5.64846H5.00861V1.09217Z" fill="#101113"/>
</svg>
