<svg width="19" height="18" viewBox="0 0 19 18" fill="none" xmlns="http://www.w3.org/2000/svg">
<path d="M2.36787 8.52431C3.67561 8.52431 4.73574 7.46418 4.73574 6.15644C4.73574 4.84871 3.67561 3.78857 2.36787 3.78857C1.06013 3.78857 0 4.84871 0 6.15644C0 7.46418 1.06013 8.52431 2.36787 8.52431Z" fill="#101113"/>
<path d="M6.63002 4.73574C7.93775 4.73574 8.99789 3.67561 8.99789 2.36787C8.99789 1.06013 7.93775 0 6.63002 0C5.32228 0 4.26215 1.06013 4.26215 2.36787C4.26215 3.67561 5.32228 4.73574 6.63002 4.73574Z" fill="#101113"/>
<path d="M12.313 4.73574C13.6207 4.73574 14.6808 3.67561 14.6808 2.36787C14.6808 1.06013 13.6207 0 12.313 0C11.0052 0 9.9451 1.06013 9.9451 2.36787C9.9451 3.67561 11.0052 4.73574 12.313 4.73574Z" fill="#101113"/>
<path d="M16.5751 8.52431C17.8829 8.52431 18.943 7.46418 18.943 6.15644C18.943 4.84871 17.8829 3.78857 16.5751 3.78857C15.2674 3.78857 14.2072 4.84871 14.2072 6.15644C14.2072 7.46418 15.2674 8.52431 16.5751 8.52431Z" fill="#101113"/>
<path d="M14.5294 11.2332C13.7054 10.2671 13.0139 9.44309 12.1805 8.477C11.7448 7.96554 11.1859 7.45408 10.5229 7.22677C10.4188 7.18888 10.3146 7.16047 10.2104 7.14152C9.9736 7.10364 9.71787 7.10364 9.47161 7.10364C9.22535 7.10364 8.96962 7.10364 8.72336 7.151C8.61917 7.16994 8.51499 7.19835 8.4108 7.23624C7.7478 7.46355 7.19845 7.97501 6.75329 8.48647C5.92927 9.45256 5.23786 10.2766 4.40437 11.2427C3.1636 12.4834 1.63869 13.8568 1.92284 15.7795C2.19751 16.7456 2.88893 17.7022 4.12969 17.9769C4.82111 18.119 7.02796 17.5602 9.37689 17.5602H9.54738C11.8963 17.5602 14.1032 18.1095 14.7946 17.9769C16.0353 17.7022 16.7268 16.7361 17.0014 15.7795C17.2951 13.8473 15.7701 12.474 14.5294 11.2332Z" fill="#101113"/>
</svg>
