<svg width="29" height="29" viewBox="0 0 29 29" fill="none" xmlns="http://www.w3.org/2000/svg">
<g clip-path="url(#clip0)">
<path d="M21.8761 17.3621C20.1081 15.5941 17.8173 14.5395 15.3523 14.3415V12.602H16.9975V10.8972H12.0022V12.602H13.6474V14.3415C11.1824 14.5395 8.89154 15.5941 7.12356 17.3621C5.35558 19.13 4.30104 21.4209 4.10303 23.8859H24.8966C24.6987 21.4209 23.644 19.1299 21.8761 17.3621Z" fill="black"/>
<path d="M23.8401 27.2953V25.5906H5.17659V27.2953H2.51001V29.0001H26.4903V27.2953H23.8401Z" fill="black"/>
<path d="M15.3527 0H13.6479V3.57776H15.3527V0Z" fill="black"/>
<path d="M26.1794 11.2253H22.5347V12.9301H26.1794V11.2253Z" fill="black"/>
<path d="M6.44305 11.2253H2.82031V12.9301H6.44305V11.2253Z" fill="black"/>
<path d="M22.3971 2.97485L22.3848 2.98726L19.8057 5.56639L21.0111 6.77181L23.5902 4.19268L23.6026 4.18028L22.3971 2.97485Z" fill="black"/>
<path d="M6.60341 2.97583L6.02404 3.55515L5.38745 4.17061L6.00064 3.57854L5.39793 4.18126L7.97712 6.76039L9.18254 5.55496L6.60341 2.97583Z" fill="black"/>
</g>
<defs>
<clipPath id="clip0">
<rect width="29" height="29" fill="white"/>
</clipPath>
</defs>
</svg>
