<svg width="18" height="18" viewBox="0 0 18 18" fill="none" xmlns="http://www.w3.org/2000/svg">
<g clip-path="url(#clip0)">
<path d="M6.74995 0.562744C6.74995 1.80359 7.75905 2.8127 8.9999 2.8127C10.2396 2.8127 11.2498 1.80359 11.2498 0.562744H6.74995Z" fill="#101113"/>
<path d="M17.7163 2.88694L13.7789 0.636993C13.6945 0.588619 13.5978 0.562744 13.4999 0.562744H12.3749C12.3749 2.42345 10.8607 3.93767 8.99999 3.93767C7.13928 3.93767 5.62506 2.42345 5.62506 0.562744H4.50008C4.40221 0.562744 4.30659 0.588619 4.22109 0.636993L0.283673 2.88694C0.0586781 3.01519 -0.0493196 3.28069 0.0215539 3.52931L1.14653 7.46672C1.22978 7.75921 1.53352 7.93134 1.82377 7.85821L3.37511 7.47122V16.8749C3.37511 17.1854 3.6271 17.4374 3.93759 17.4374H14.0624C14.3729 17.4374 14.6249 17.1854 14.6249 16.8749V7.47122L16.1762 7.85821C16.4664 7.93246 16.7691 7.75921 16.8534 7.46672L17.9784 3.52931C18.0493 3.28069 17.9413 3.01519 17.7163 2.88694Z" fill="#101113"/>
</g>
<defs>
<clipPath id="clip0">
<rect width="18" height="18" fill="white"/>
</clipPath>
</defs>
</svg>
