<svg width="23" height="16" viewBox="0 0 23 16" fill="none" xmlns="http://www.w3.org/2000/svg">
<path d="M4.93206 0.130211L0.14038 4.57638C0.0505366 4.65971 -4.90768e-07 4.77254 -4.85606e-07 4.89063L-7.77097e-08 14.2222C-3.48507e-08 15.2027 0.85958 16 1.91668 16L21.0834 16C22.1404 16 23 15.2027 23 14.2222L23 1.77775C23 0.797293 22.1404 9.3956e-07 21.0833 9.85768e-07L5.27082 1.67695e-06C5.14355 1.68252e-06 5.02191 0.0468767 4.93206 0.130211ZM9.10418 9.33333C8.83932 9.33333 8.625 9.13454 8.625 8.88888L8.625 7.11108C8.625 6.86542 8.83932 6.66663 9.10418 6.66663L11.0209 6.66663C11.2857 6.66663 11.5 6.86542 11.5 7.11108L11.5 8.88888C11.5 9.13454 11.2857 9.33333 11.0209 9.33333L9.10418 9.33333ZM10.0625 13.3333C9.26981 13.3333 8.625 12.7353 8.625 12L8.625 10.6667C8.625 10.421 8.83932 10.2222 9.10418 10.2222L11.0209 10.2222C11.2857 10.2222 11.5 10.421 11.5 10.6667L11.5 12.8889C11.5 13.1345 11.2857 13.3333 11.0209 13.3333L10.0625 13.3333ZM19.6458 10.6667C19.9107 10.6667 20.125 10.8655 20.125 11.1111L20.125 12C20.125 12.7352 19.4802 13.3333 18.6875 13.3333L17.7292 13.3333C17.4643 13.3333 17.25 13.1345 17.25 12.8889L17.25 11.1111C17.25 10.8654 17.4643 10.6666 17.7292 10.6666L19.6458 10.6666L19.6458 10.6667ZM19.6458 7.11113C19.9107 7.11113 20.125 7.30992 20.125 7.55558L20.125 9.33333C20.125 9.579 19.9107 9.77779 19.6458 9.77779L17.7291 9.77779C17.4643 9.77779 17.25 9.579 17.25 9.33333L17.25 7.55554C17.25 7.30988 17.4643 7.11108 17.7291 7.11108L19.6458 7.11108L19.6458 7.11113ZM18.6875 2.66667C19.4802 2.66667 20.125 3.26475 20.125 4L20.125 5.77779C20.125 6.02346 19.9107 6.22225 19.6458 6.22225L16.7708 6.22225C16.5065 6.22225 16.2916 6.42146 16.2916 6.66671L16.2916 12.8889C16.2916 13.1345 16.0773 13.3333 15.8125 13.3333L12.9375 13.3333C12.6726 13.3333 12.4583 13.1345 12.4583 12.8889L12.4583 3.11108C12.4583 2.86542 12.6726 2.66663 12.9375 2.66663L18.6875 2.66663L18.6875 2.66667ZM11.0208 2.66667C11.2857 2.66667 11.5 2.86546 11.5 3.11113L11.5 5.33333C11.5 5.579 11.2857 5.77779 11.0208 5.77779L9.10414 5.77779C8.83928 5.77779 8.62495 5.579 8.62495 5.33333L8.62495 4C8.62495 3.26475 9.26976 2.66667 10.0625 2.66667L11.0208 2.66667Z" fill="#101113"/>
</svg>
