<svg width="20" height="20" viewBox="0 0 20 20" fill="none" xmlns="http://www.w3.org/2000/svg">
<path d="M5.02425 2.56042C5.38372 2.56042 5.67513 2.26902 5.67513 1.90955C5.67513 1.55008 5.38372 1.25867 5.02425 1.25867C4.66478 1.25867 4.37337 1.55008 4.37337 1.90955C4.37337 2.26902 4.66478 2.56042 5.02425 2.56042Z" fill="#101113"/>
<path d="M5.47145 5.33363C5.72563 5.07945 5.72563 4.66736 5.47145 4.41317C5.21727 4.15899 4.80517 4.15899 4.55099 4.41317C4.29681 4.66736 4.29681 5.07945 4.55099 5.33363C4.80517 5.58782 5.21731 5.58782 5.47145 5.33363Z" fill="#101113"/>
<path d="M15.2357 13.8244C14.8959 13.9417 14.7156 14.3123 14.8329 14.6521C14.9502 14.9919 15.3208 15.1722 15.6606 15.0549C16.0003 14.9376 16.1807 14.567 16.0634 14.2272C15.9461 13.8874 15.5755 13.7071 15.2357 13.8244Z" fill="#101113"/>
<path d="M17.8516 14.7725C17.5118 14.8898 17.3314 15.2604 17.4487 15.6002C17.566 15.94 17.9366 16.1203 18.2764 16.003C18.6162 15.8857 18.7965 15.5151 18.6792 15.1753C18.5619 14.8355 18.1913 14.6552 17.8516 14.7725Z" fill="#101113"/>
<path d="M10.9884 9.34217C10.9393 9.18438 10.8158 9.06078 10.658 9.01177L9.3742 8.61269C9.35012 8.60519 9.32386 8.61167 9.30599 8.62954L2.90341 15.0321C2.87621 15.0593 2.87624 15.1038 2.90345 15.131L2.90396 15.1315L4.89392 17.1214C4.90225 17.1297 4.90959 17.1387 4.91737 17.1474L11.3706 10.6941C11.3885 10.6763 11.3949 10.65 11.3875 10.6259L10.9884 9.34217Z" fill="#101113"/>
<path d="M19.9543 8.34921L17.7921 5.45176C17.664 5.28009 17.6285 5.05636 17.6974 4.85346L18.8584 1.42962C18.9189 1.25127 18.7486 1.08097 18.5702 1.14143L15.1464 2.30248C14.9435 2.37127 14.7198 2.33586 14.5481 2.20773L11.6506 0.0455486C11.4997 -0.0671004 11.2851 0.0422653 11.2875 0.230587L11.3337 3.8456C11.3364 4.05979 11.2336 4.26164 11.0587 4.38531L8.10689 6.4728C7.95312 6.58154 7.9908 6.81942 8.17064 6.87535L11.623 7.94849C11.8276 8.01209 11.9878 8.17227 12.0514 8.37685L13.1245 11.8292C13.1804 12.0091 13.4183 12.0467 13.5271 11.893L15.6145 8.94115C15.7366 8.7685 15.9349 8.66609 16.1459 8.66609C16.1487 8.66609 16.1515 8.66609 16.1543 8.66613L19.7693 8.71233C19.9577 8.71475 20.067 8.50017 19.9543 8.34921Z" fill="#101113"/>
<path d="M1.98342 16.0518C1.98326 16.0517 1.98306 16.0515 1.98291 16.0513C1.95586 16.0242 1.91255 16.0228 1.88546 16.0499L0.427593 17.5078C-0.142531 18.0779 -0.142531 19.0022 0.427593 19.5724C0.997718 20.1425 1.92209 20.1425 2.49221 19.5724L3.99933 18.0653C3.99066 18.0575 3.9817 18.0501 3.97338 18.0418L1.98342 16.0518Z" fill="#101113"/>
</svg>
